Patient4_TMGait_0pt4_02_left_40_EMG.mot
version=1
nRows=16
nColumns=33
inDegrees=no
endheader
time	1LAddLong	2LGlutMax	3LGlutMed	4LIliopsoas	5LSemiMemb	6LBicFemLong	7LRecFem	8LVastMed	9LVastLat	10LGasMed	11LTibAnt	12lTibPost	13LPeroneusLong	14LSol	15LExtDigLong	16LFlexDigLong	17RAddLong	18RGlutMax	19RGlutMed	20RIliopsoas	21RSemiMemb	22RBicFemLong	23RRecFem	24RVastMed	25RVastLat	26RGasMed	27RTibAnt	28RTibPost	29RPeroneusLong	30RSol	31RExtDigLong	32RFlexDigLong
54.28	0.003815	0.00824	-0.005646	0.004272	0.034943	0.021973	-0.065308	0.002747	0.001526	-0.019073	0.00473	-0.21957	0.36499	-0.4216	-0.054016	0.31204	0.05127	0.22201	-0.17593	-0.057831	-0.001373	-0.16235	-0.3273	-0.12772	0.091095	-0.010071	-0.007324	-0.007324	-0.005341	-0.004578	-0.004272	-0.006256
54.281	0.005951	0.016327	-0.046692	0.009918	0.023804	0.032501	-0.052948	-0.011139	-0.001984	-0.13534	0.007172	0.029907	0.074615	-0.30838	-0.053406	0.58731	0.030823	0.27588	-0.007324	-0.15091	-0.052948	-0.11246	-0.27069	-0.18082	0.062561	-0.006714	-0.034637	-0.005035	0.027161	-0.024872	-0.004425	0.009918
54.282	0.017242	-0.012817	-0.048523	0.005493	0.000458	-0.010223	-0.045013	-0.008698	-0.010834	0.17136	0.003967	-0.038605	0.010376	0.42999	-0.014038	0.075073	0.027924	0.24628	0.66315	-0.11337	-0.19287	-0.040588	-0.26596	-0.19379	0.12726	-0.014191	-0.021057	-0.006866	0.028381	-0.016022	-0.003815	0.006561
54.283	0.019836	-0.005341	-0.031433	0.013123	-0.015564	-0.059509	-0.025177	-0.00412	-0.016632	0.14435	0.00061	-0.072021	-0.007782	0.30167	-0.030365	0.010529	0.04837	0.13931	0.79376	-0.087738	-0.14145	0.092163	-0.21698	-0.02182	0.14008	-0.010376	0.045471	-0.004425	0.001221	-0.028076	-0.001068	0.001068
54.284	0.021057	-0.015717	0.067291	0.023041	0.017395	-0.074615	-0.032959	-0.00824	-0.020142	-0.072021	0.000153	-0.060577	0.006866	-0.50308	-0.027161	-0.68603	0.037231	0.007935	0.14877	-0.071869	0.022888	0.27206	-0.005646	-0.044403	0.25726	-0.013123	0.070801	0.001221	0.20248	-0.030518	-0.002441	0.003357
54.285	0.017548	0.016785	0.059357	0.019073	0.013123	-0.014648	-0.014648	-0.007935	-0.027771	-0.054321	0.015869	0.11902	0.046387	-0.97748	-0.045166	0.48019	0.041809	-0.16281	-0.43121	0.028839	0.23422	0.41214	0.047913	-0.10757	0.61615	-0.012665	0.090027	-0.004425	0.47867	-0.045166	-0.001831	0.01358
54.286	0.022125	0.011292	0.039673	-0.007935	0.010986	-0.002747	-0.024567	-0.009003	-0.028687	-0.059204	0.015259	0.063171	0.044708	-0.82092	-0.030823	0.23209	0.03479	-0.32303	-0.29846	0.019379	0.1976	0.37964	0.044098	-0.21591	0.7074	-0.015869	0.10132	0.001678	0.24826	-0.051575	0	0.006561
54.287	0.005493	0.003052	0.079498	-0.020142	0.009766	-0.016022	-0.027161	-0.003357	-0.023499	0.076752	0.017395	-0.21423	0.037994	-0.12512	-0.021973	-0.25009	0.047607	-0.32425	0.27069	0.097961	0.10864	0.23956	-0.019836	-0.28748	0.41992	-0.006104	0.053101	-0.005341	-0.36865	-0.078125	-0.006561	0.008392
54.288	0.007782	0.005035	0.054321	0.002899	0.000305	-0.000305	-0.050354	-0.001831	-0.012207	0.12833	-0.002594	-0.064087	0.13977	0.23483	-0.035553	0.030518	0.045319	-0.25711	-0.097198	0.21881	-0.10788	0.20462	0.003204	-0.21835	0.029144	-0.005188	-0.020447	-0.001678	-0.99136	-0.13062	-0.00473	0.006866
54.289	0.009155	0.014801	0.073242	0.001221	-0.023651	0.018005	-0.041809	-0.008698	-0.013885	0.16647	0.003052	-0.056763	0.11612	0.2626	-0.009918	0.067596	0.067139	-0.29053	-0.55344	0.1416	-0.14572	0.055389	-0.066223	-0.17288	-0.26566	-0.002594	0.022888	-0.001373	-0.033417	-0.11032	-0.004578	0.004883
54.29	-0.002594	0.03006	0.10559	0.006409	-0.019531	0.035095	-0.053558	-0.00351	-0.014343	0.15503	0.006866	-0.099945	0.04425	0.26062	-0.006409	-0.048218	0.10361	-0.23117	0.22812	-0.096893	-0.084381	-0.090942	-0.074921	-0.059052	-0.36713	-0.003357	0.11459	-0.000458	0.37308	-0.054169	-0.000458	0.002899
54.291	0.007629	-0.005798	0.10773	0.00061	-0.023193	0.045776	-0.056458	-0.003052	-0.02655	0.25131	0.016174	-0.095215	-0.056152	-0.40878	0.00061	-0.059814	0.093231	-0.20233	0.616	-0.19745	-0.26047	-0.22919	-0.005798	-0.063629	-0.37506	-0.010223	0.099792	-0.008698	-0.44281	0.037537	-0.011902	0.006714
54.292	0.005646	0.005341	0.067291	0.001984	-0.029602	0.029602	-0.078735	-0.010376	-0.023041	0.29205	0.007782	0.12161	-0.10223	-0.43732	0.01709	-0.073853	0.058899	-0.14969	-0.1915	-0.10498	-0.25223	-0.32272	-0.013885	-0.084076	-0.41412	-0.004272	-0.036774	-0.00351	0.062561	-0.010071	-0.003662	0.007935
54.293	0.005798	-0.02533	0.070801	-0.007324	-0.046844	0.032349	-0.071869	-0.011444	-0.031586	-0.23086	-0.002747	-0.2356	-0.091705	-0.006866	0.019989	-0.058136	0.077972	-0.089569	-0.36575	0.18631	-0.009918	-0.43671	0.075226	-0.043945	-0.35233	-0.003204	-0.14343	-0.006714	0.97565	-0.018158	-0.003662	0.00351
54.294	0.017853	-0.003357	0.078735	0.005951	-0.062561	-0.021515	-0.062561	-0.012054	-0.033875	-0.31143	-0.005493	-0.14969	0.029602	0.28412	0.018921	-0.050507	0.030365	-0.05722	-0.25665	0.10132	0.64835	-0.49103	0.13748	-0.06546	-0.23499	-0.005035	-0.12573	-0.002441	1.5482	-0.054474	-0.005188	-0.002289
54.295	0.00946	0.011749	0.092468	0.008392	-0.039825	-0.10071	-0.063324	-0.015411	-0.031128	-0.15167	-0.004578	-0.077362	0.060883	0.24292	0.023499	-0.047302	0.011749	-0.038147	-0.027618	-0.14069	0.52445	-0.32776	0.13779	-0.052795	-0.072021	-0.000153	-0.094452	-0.002136	0.4512	-0.11307	-0.002441	0.003967
